<svg xmlns="http://www.w3.org/2000/svg" width="12" height="12" viewBox="0 0 12 12"><path d="M11.098 3.108c-.418.419-.628.628-.847.669-.22.04-.364-.104-.652-.392L8.615 2.4c-.288-.288-.432-.432-.392-.652s.25-.428.669-.847l.226-.227c.419-.418.628-.628.848-.668s.364.103.652.392l.983.983c.289.288.433.432.392.652s-.25.429-.668.848zM.954 11.91c-.5.093-.75.139-.876.012-.127-.126-.08-.376.011-.876L.312 9.84c.04-.217.06-.325.118-.43s.15-.196.33-.377l5.554-5.554c.419-.418.628-.628.848-.668s.364.103.652.392l.983.983c.289.288.433.432.392.652s-.25.429-.668.848l-5.554 5.553c-.181.182-.272.273-.377.33-.105.06-.213.08-.43.12z"/></svg>