<svg xmlns="http://www.w3.org/2000/svg" width="20" height="17" viewBox="0 0 20 17"><path d="m16.035 17-1.38-1.38 1.552-1.64h-4.138v-1.985h4.138l-1.552-1.64 1.38-1.38L20 12.945zM1.983 13.98c-.517 0-1.035-.173-1.38-.604-.43-.432-.603-.863-.603-1.381V1.985C0 1.467.172.949.603.605 1.034.258 1.466 0 1.983 0H15c.517 0 1.035.173 1.38.604.43.432.603.863.603 1.38v5.092c-.173 0-.345-.086-.518-.086h-1.034c-.172 0-.345 0-.517.086v-3.71L8.276 7.938 1.983 3.365v8.544h8.103c0 .172-.086.345-.086.517v1.036c0 .172 0 .345.086.518zM3.448 1.985l4.914 3.538 5.172-3.538z"/></svg>