<svg xmlns="http://www.w3.org/2000/svg" width="12" height="17" viewBox="0 0 12 17"><path d="M6.923 17v-1.501c1.566-.081 2.77-.5 3.692-1.26C11.54 13.48 12 12.48 12 11.317c0-1.26-.38-2.18-1.203-2.76-.841-.662-2.028-1.179-3.775-1.502h-.099V3.18c1.203.162 2.209.5 3.23 1.179l1.484-1.84Q9.411 1.139 6.94 1.017V0H5.555v1.001c-1.385.08-2.588.5-3.511 1.26C1.121 3.018.643 4.02.643 5.181c0 1.163.379 2.1 1.203 2.68.742.581 2.028 1.082 3.692 1.421v3.94c-1.302-.162-2.587-.76-3.873-1.76L0 13.223c1.665 1.34 3.511 2.098 5.538 2.26V17zm.099-7.297c.923.242 1.483.5 1.846.758.28.34.462.662.462 1.18 0 .5-.182.839-.643 1.178-.462.339-1.022.5-1.665.58zm-3.23-3.6C3.51 5.86 3.33 5.44 3.33 5.02c0-.5.181-.84.544-1.179.461-.339.923-.5 1.664-.58v3.6c-.923-.259-1.467-.501-1.747-.76"/></svg>