<svg xmlns="http://www.w3.org/2000/svg" width="20" height="15" viewBox="0 0 20 15"><path d="M15.455 9.375V6.563h-2.728V4.688h2.727V1.874h1.819v2.813H20v1.875h-2.727v2.812zM7.272 7.5q-1.5 0-2.568-1.102-1.07-1.101-1.069-2.648 0-1.547 1.069-2.648T7.273 0 9.84 1.102t1.068 2.648T9.84 6.398 7.273 7.5M0 15v-2.625q0-.797.398-1.465a2.7 2.7 0 0 1 1.057-1.02A13.2 13.2 0 0 1 4.318 8.8q1.455-.362 2.955-.363 1.5 0 2.954.364 1.455.363 2.864 1.09.66.351 1.057 1.02.398.667.398 1.464V15zm1.818-1.875h10.91v-.75a.9.9 0 0 0-.455-.797 11.6 11.6 0 0 0-2.478-.95 10.24 10.24 0 0 0-5.045 0q-1.25.318-2.477.95a.9.9 0 0 0-.33.328.9.9 0 0 0-.125.469zm5.455-7.5q.75 0 1.284-.55.534-.552.534-1.325 0-.774-.534-1.324a1.73 1.73 0 0 0-1.284-.551q-.75 0-1.284.55a1.83 1.83 0 0 0-.534 1.325q0 .774.534 1.324t1.284.551"/></svg>